<mxfile host="app.diagrams.net" modified="2024-02-12T13:51:25.542Z" agent="Mozilla/5.0 (Windows NT 10.0; Win64; x64) AppleWebKit/537.36 (KHTML, like Gecko) Chrome/121.0.0.0 Safari/537.36" etag="UctqezU1Gj1mjNKZqoVe" version="23.1.2" type="device">
  <diagram name="Page-1" id="YDfl65eKWdAgi_SUlJkL">
    <mxGraphModel dx="1050" dy="565" grid="1" gridSize="10" guides="1" tooltips="1" connect="1" arrows="1" fold="1" page="1" pageScale="1" pageWidth="850" pageHeight="1100" math="0" shadow="0">
      <root>
        <mxCell id="0" />
        <mxCell id="1" parent="0" />
        <mxCell id="VeNDDgViyunSrUkDf_ve-1" value="" style="ellipse;html=1;shape=startState;fillColor=#000000;strokeColor=#ff0000;" vertex="1" parent="1">
          <mxGeometry x="380" y="30" width="50" height="50" as="geometry" />
        </mxCell>
        <mxCell id="VeNDDgViyunSrUkDf_ve-2" value="" style="edgeStyle=orthogonalEdgeStyle;html=1;verticalAlign=bottom;endArrow=open;endSize=8;strokeColor=#ff0000;rounded=0;" edge="1" source="VeNDDgViyunSrUkDf_ve-1" parent="1">
          <mxGeometry relative="1" as="geometry">
            <mxPoint x="405" y="150" as="targetPoint" />
          </mxGeometry>
        </mxCell>
        <mxCell id="VeNDDgViyunSrUkDf_ve-4" value="" style="shape=line;html=1;strokeWidth=6;strokeColor=#ff0000;" vertex="1" parent="1">
          <mxGeometry x="300" y="150" width="200" height="10" as="geometry" />
        </mxCell>
        <mxCell id="VeNDDgViyunSrUkDf_ve-8" value="Is right ?" style="rhombus;whiteSpace=wrap;html=1;" vertex="1" parent="1">
          <mxGeometry x="300" y="290" width="80" height="80" as="geometry" />
        </mxCell>
        <mxCell id="VeNDDgViyunSrUkDf_ve-9" value="" style="endArrow=classic;html=1;rounded=0;entryX=0.5;entryY=0;entryDx=0;entryDy=0;exitX=0.202;exitY=0.86;exitDx=0;exitDy=0;exitPerimeter=0;" edge="1" parent="1" source="VeNDDgViyunSrUkDf_ve-4" target="VeNDDgViyunSrUkDf_ve-33">
          <mxGeometry width="50" height="50" relative="1" as="geometry">
            <mxPoint x="400" y="320" as="sourcePoint" />
            <mxPoint x="340" y="200" as="targetPoint" />
            <Array as="points">
              <mxPoint x="340" y="180" />
            </Array>
          </mxGeometry>
        </mxCell>
        <mxCell id="VeNDDgViyunSrUkDf_ve-10" value="" style="endArrow=classic;html=1;rounded=0;exitX=0.85;exitY=0.46;exitDx=0;exitDy=0;exitPerimeter=0;entryX=0.396;entryY=-0.028;entryDx=0;entryDy=0;entryPerimeter=0;" edge="1" parent="1" source="VeNDDgViyunSrUkDf_ve-4">
          <mxGeometry width="50" height="50" relative="1" as="geometry">
            <mxPoint x="400" y="320" as="sourcePoint" />
            <mxPoint x="469.5999999999999" y="198.60000000000002" as="targetPoint" />
          </mxGeometry>
        </mxCell>
        <mxCell id="VeNDDgViyunSrUkDf_ve-11" value="" style="endArrow=classic;html=1;rounded=0;exitX=0.5;exitY=1;exitDx=0;exitDy=0;entryX=0.5;entryY=0;entryDx=0;entryDy=0;" edge="1" parent="1" source="VeNDDgViyunSrUkDf_ve-33" target="VeNDDgViyunSrUkDf_ve-8">
          <mxGeometry width="50" height="50" relative="1" as="geometry">
            <mxPoint x="340" y="250" as="sourcePoint" />
            <mxPoint x="450" y="270" as="targetPoint" />
          </mxGeometry>
        </mxCell>
        <mxCell id="VeNDDgViyunSrUkDf_ve-12" value="" style="endArrow=classic;html=1;rounded=0;exitX=0;exitY=0.5;exitDx=0;exitDy=0;entryX=0;entryY=0.5;entryDx=0;entryDy=0;" edge="1" parent="1" source="VeNDDgViyunSrUkDf_ve-8" target="VeNDDgViyunSrUkDf_ve-33">
          <mxGeometry width="50" height="50" relative="1" as="geometry">
            <mxPoint x="400" y="320" as="sourcePoint" />
            <mxPoint x="300" y="220" as="targetPoint" />
            <Array as="points">
              <mxPoint x="230" y="330" />
              <mxPoint x="230" y="220" />
            </Array>
          </mxGeometry>
        </mxCell>
        <mxCell id="VeNDDgViyunSrUkDf_ve-13" value="NO" style="edgeLabel;html=1;align=center;verticalAlign=middle;resizable=0;points=[];" vertex="1" connectable="0" parent="VeNDDgViyunSrUkDf_ve-12">
          <mxGeometry x="0.1157" y="-1" relative="1" as="geometry">
            <mxPoint as="offset" />
          </mxGeometry>
        </mxCell>
        <mxCell id="VeNDDgViyunSrUkDf_ve-14" value="" style="endArrow=classic;html=1;rounded=0;exitX=0.5;exitY=1;exitDx=0;exitDy=0;" edge="1" parent="1" source="VeNDDgViyunSrUkDf_ve-8">
          <mxGeometry width="50" height="50" relative="1" as="geometry">
            <mxPoint x="400" y="320" as="sourcePoint" />
            <mxPoint x="340" y="420" as="targetPoint" />
          </mxGeometry>
        </mxCell>
        <mxCell id="VeNDDgViyunSrUkDf_ve-20" value="" style="shape=line;html=1;strokeWidth=6;strokeColor=#ff0000;" vertex="1" parent="1">
          <mxGeometry x="250" y="520" width="200" height="10" as="geometry" />
        </mxCell>
        <mxCell id="VeNDDgViyunSrUkDf_ve-22" value="" style="endArrow=classic;html=1;rounded=0;exitX=0.172;exitY=0.82;exitDx=0;exitDy=0;exitPerimeter=0;entryX=0.436;entryY=0.02;entryDx=0;entryDy=0;entryPerimeter=0;" edge="1" parent="1" source="VeNDDgViyunSrUkDf_ve-20">
          <mxGeometry width="50" height="50" relative="1" as="geometry">
            <mxPoint x="400" y="610" as="sourcePoint" />
            <mxPoint x="283.5999999999999" y="591" as="targetPoint" />
          </mxGeometry>
        </mxCell>
        <mxCell id="VeNDDgViyunSrUkDf_ve-25" value="" style="endArrow=classic;html=1;rounded=0;exitX=0.75;exitY=0.5;exitDx=0;exitDy=0;exitPerimeter=0;entryX=0.32;entryY=0.004;entryDx=0;entryDy=0;entryPerimeter=0;" edge="1" parent="1" source="VeNDDgViyunSrUkDf_ve-20">
          <mxGeometry width="50" height="50" relative="1" as="geometry">
            <mxPoint x="400" y="610" as="sourcePoint" />
            <mxPoint x="402" y="590.2" as="targetPoint" />
          </mxGeometry>
        </mxCell>
        <mxCell id="VeNDDgViyunSrUkDf_ve-29" value="" style="endArrow=classic;html=1;rounded=0;exitX=0.5;exitY=1;exitDx=0;exitDy=0;entryX=0.456;entryY=0.5;entryDx=0;entryDy=0;entryPerimeter=0;" edge="1" parent="1" target="VeNDDgViyunSrUkDf_ve-20">
          <mxGeometry width="50" height="50" relative="1" as="geometry">
            <mxPoint x="340" y="480" as="sourcePoint" />
            <mxPoint x="450" y="560" as="targetPoint" />
          </mxGeometry>
        </mxCell>
        <mxCell id="VeNDDgViyunSrUkDf_ve-30" value="" style="ellipse;html=1;shape=endState;fillColor=#000000;strokeColor=#ff0000;" vertex="1" parent="1">
          <mxGeometry x="175" y="980" width="30" height="30" as="geometry" />
        </mxCell>
        <mxCell id="VeNDDgViyunSrUkDf_ve-31" value="sign up" style="rounded=1;whiteSpace=wrap;html=1;" vertex="1" parent="1">
          <mxGeometry x="420" y="187.5" width="120" height="60" as="geometry" />
        </mxCell>
        <mxCell id="VeNDDgViyunSrUkDf_ve-32" value="" style="endArrow=classic;html=1;rounded=0;exitX=0;exitY=0.5;exitDx=0;exitDy=0;entryX=1;entryY=0.5;entryDx=0;entryDy=0;" edge="1" parent="1" source="VeNDDgViyunSrUkDf_ve-31" target="VeNDDgViyunSrUkDf_ve-33">
          <mxGeometry width="50" height="50" relative="1" as="geometry">
            <mxPoint x="400" y="350" as="sourcePoint" />
            <mxPoint x="390" y="225" as="targetPoint" />
          </mxGeometry>
        </mxCell>
        <mxCell id="VeNDDgViyunSrUkDf_ve-33" value="log in" style="rounded=1;whiteSpace=wrap;html=1;" vertex="1" parent="1">
          <mxGeometry x="290" y="195" width="100" height="45" as="geometry" />
        </mxCell>
        <mxCell id="VeNDDgViyunSrUkDf_ve-36" value="Enter to the chatbot" style="rounded=1;whiteSpace=wrap;html=1;" vertex="1" parent="1">
          <mxGeometry x="280" y="420" width="120" height="60" as="geometry" />
        </mxCell>
        <mxCell id="VeNDDgViyunSrUkDf_ve-37" value="Guidance to the nearest hospital" style="rounded=1;whiteSpace=wrap;html=1;" vertex="1" parent="1">
          <mxGeometry x="360" y="590" width="120" height="60" as="geometry" />
        </mxCell>
        <mxCell id="VeNDDgViyunSrUkDf_ve-38" value="symptoms of illness" style="rounded=1;whiteSpace=wrap;html=1;" vertex="1" parent="1">
          <mxGeometry x="230" y="590" width="120" height="60" as="geometry" />
        </mxCell>
        <mxCell id="VeNDDgViyunSrUkDf_ve-39" value="" style="endArrow=classic;html=1;rounded=0;exitX=0.5;exitY=1;exitDx=0;exitDy=0;" edge="1" parent="1" source="VeNDDgViyunSrUkDf_ve-38">
          <mxGeometry width="50" height="50" relative="1" as="geometry">
            <mxPoint x="400" y="610" as="sourcePoint" />
            <mxPoint x="290" y="700" as="targetPoint" />
          </mxGeometry>
        </mxCell>
        <mxCell id="VeNDDgViyunSrUkDf_ve-40" value="Chatbot Retrieves symptoms Data" style="rounded=1;whiteSpace=wrap;html=1;" vertex="1" parent="1">
          <mxGeometry x="220" y="700" width="120" height="60" as="geometry" />
        </mxCell>
        <mxCell id="VeNDDgViyunSrUkDf_ve-41" value="Chatbot Retrieves Hospital Data" style="rounded=1;whiteSpace=wrap;html=1;" vertex="1" parent="1">
          <mxGeometry x="360" y="700" width="120" height="60" as="geometry" />
        </mxCell>
        <mxCell id="VeNDDgViyunSrUkDf_ve-42" value="" style="endArrow=classic;html=1;rounded=0;exitX=0.5;exitY=1;exitDx=0;exitDy=0;entryX=0.5;entryY=0;entryDx=0;entryDy=0;" edge="1" parent="1" source="VeNDDgViyunSrUkDf_ve-37" target="VeNDDgViyunSrUkDf_ve-41">
          <mxGeometry width="50" height="50" relative="1" as="geometry">
            <mxPoint x="400" y="610" as="sourcePoint" />
            <mxPoint x="450" y="560" as="targetPoint" />
          </mxGeometry>
        </mxCell>
        <mxCell id="VeNDDgViyunSrUkDf_ve-43" value="" style="endArrow=classic;html=1;rounded=0;exitX=0.5;exitY=1;exitDx=0;exitDy=0;" edge="1" parent="1" source="VeNDDgViyunSrUkDf_ve-40" target="VeNDDgViyunSrUkDf_ve-44">
          <mxGeometry width="50" height="50" relative="1" as="geometry">
            <mxPoint x="400" y="600" as="sourcePoint" />
            <mxPoint x="280" y="800" as="targetPoint" />
          </mxGeometry>
        </mxCell>
        <mxCell id="VeNDDgViyunSrUkDf_ve-44" value="symptoms responds" style="rounded=1;whiteSpace=wrap;html=1;" vertex="1" parent="1">
          <mxGeometry x="220" y="790" width="120" height="60" as="geometry" />
        </mxCell>
        <mxCell id="VeNDDgViyunSrUkDf_ve-46" value="Hospital Database Responds" style="rounded=1;whiteSpace=wrap;html=1;" vertex="1" parent="1">
          <mxGeometry x="360" y="790" width="120" height="60" as="geometry" />
        </mxCell>
        <mxCell id="VeNDDgViyunSrUkDf_ve-47" value="" style="endArrow=classic;html=1;rounded=0;exitX=0.5;exitY=1;exitDx=0;exitDy=0;entryX=0.5;entryY=0;entryDx=0;entryDy=0;" edge="1" parent="1" source="VeNDDgViyunSrUkDf_ve-41" target="VeNDDgViyunSrUkDf_ve-46">
          <mxGeometry width="50" height="50" relative="1" as="geometry">
            <mxPoint x="400" y="890" as="sourcePoint" />
            <mxPoint x="450" y="840" as="targetPoint" />
          </mxGeometry>
        </mxCell>
        <mxCell id="VeNDDgViyunSrUkDf_ve-48" value="Chatbot presents inf to the user" style="rounded=1;whiteSpace=wrap;html=1;" vertex="1" parent="1">
          <mxGeometry x="130" y="880" width="120" height="60" as="geometry" />
        </mxCell>
        <mxCell id="VeNDDgViyunSrUkDf_ve-49" value="" style="endArrow=classic;html=1;rounded=0;exitX=0.25;exitY=1;exitDx=0;exitDy=0;" edge="1" parent="1" source="VeNDDgViyunSrUkDf_ve-44" target="VeNDDgViyunSrUkDf_ve-48">
          <mxGeometry width="50" height="50" relative="1" as="geometry">
            <mxPoint x="400" y="890" as="sourcePoint" />
            <mxPoint x="450" y="840" as="targetPoint" />
          </mxGeometry>
        </mxCell>
        <mxCell id="VeNDDgViyunSrUkDf_ve-50" value="" style="endArrow=classic;html=1;rounded=0;exitX=0.5;exitY=1;exitDx=0;exitDy=0;entryX=0.5;entryY=0;entryDx=0;entryDy=0;" edge="1" parent="1" source="VeNDDgViyunSrUkDf_ve-48" target="VeNDDgViyunSrUkDf_ve-30">
          <mxGeometry width="50" height="50" relative="1" as="geometry">
            <mxPoint x="400" y="800" as="sourcePoint" />
            <mxPoint x="450" y="750" as="targetPoint" />
          </mxGeometry>
        </mxCell>
        <mxCell id="VeNDDgViyunSrUkDf_ve-51" value="Chatbot presents inf to the user" style="rounded=1;whiteSpace=wrap;html=1;" vertex="1" parent="1">
          <mxGeometry x="470" y="880" width="120" height="60" as="geometry" />
        </mxCell>
        <mxCell id="VeNDDgViyunSrUkDf_ve-52" value="" style="endArrow=classic;html=1;rounded=0;exitX=0.75;exitY=1;exitDx=0;exitDy=0;entryX=0.373;entryY=0.003;entryDx=0;entryDy=0;entryPerimeter=0;" edge="1" parent="1" source="VeNDDgViyunSrUkDf_ve-46" target="VeNDDgViyunSrUkDf_ve-51">
          <mxGeometry width="50" height="50" relative="1" as="geometry">
            <mxPoint x="400" y="800" as="sourcePoint" />
            <mxPoint x="450" y="750" as="targetPoint" />
          </mxGeometry>
        </mxCell>
        <mxCell id="VeNDDgViyunSrUkDf_ve-53" value="" style="ellipse;html=1;shape=endState;fillColor=#000000;strokeColor=#ff0000;" vertex="1" parent="1">
          <mxGeometry x="515" y="970" width="30" height="30" as="geometry" />
        </mxCell>
        <mxCell id="VeNDDgViyunSrUkDf_ve-54" value="" style="endArrow=classic;html=1;rounded=0;exitX=0.5;exitY=1;exitDx=0;exitDy=0;entryX=0.5;entryY=0;entryDx=0;entryDy=0;" edge="1" parent="1" source="VeNDDgViyunSrUkDf_ve-51" target="VeNDDgViyunSrUkDf_ve-53">
          <mxGeometry width="50" height="50" relative="1" as="geometry">
            <mxPoint x="400" y="800" as="sourcePoint" />
            <mxPoint x="450" y="750" as="targetPoint" />
          </mxGeometry>
        </mxCell>
      </root>
    </mxGraphModel>
  </diagram>
</mxfile>
